<svg width="109" height="41" fill="none" xmlns="http://www.w3.org/2000/svg"><circle cx="20.5" cy="20.5" r="20.5" fill="#B9FF66"/><path d="M11.25 24.7a1.5 1.5 0 1 0 1.5 2.599l-1.5-2.598Zm19.52-8.312a1.5 1.5 0 0 0-1.061-1.837l-13.04-3.494a1.5 1.5 0 0 0-.777 2.898l11.591 3.106-3.105 11.59a1.5 1.5 0 0 0 2.897.777l3.494-13.04ZM12.75 27.3l17.32-10-1.5-2.598-17.32 10 1.5 2.598Zm44.85.2v-14h1.68v12.48h7.08v1.52H57.6Zm13.978.28c-.68 0-1.3-.12-1.86-.36s-1-.587-1.32-1.04c-.32-.453-.48-1.007-.48-1.66 0-.667.16-1.213.48-1.64.32-.44.76-.767 1.32-.98.56-.227 1.187-.34 1.88-.34h3.3v-.72c0-.693-.207-1.24-.62-1.64-.4-.4-1-.6-1.8-.6-.787 0-1.4.193-1.84.58-.44.373-.74.88-.9 1.52l-1.48-.48c.16-.547.413-1.04.76-1.48a3.621 3.621 0 0 1 1.38-1.08c.587-.28 1.287-.42 2.1-.42 1.253 0 2.227.327 2.92.98.693.64 1.04 1.547 1.04 2.72v4.42c0 .4.187.6.56.6h.9v1.34h-1.38c-.44 0-.793-.12-1.06-.36-.267-.253-.4-.587-.4-1v-.1h-.24c-.147.253-.347.52-.6.8-.24.267-.573.487-1 .66-.427.187-.98.28-1.66.28Zm.18-1.36c.933 0 1.687-.273 2.26-.82.587-.56.88-1.34.88-2.34v-.22h-3.24c-.627 0-1.147.14-1.56.42-.4.267-.6.673-.6 1.22 0 .547.207.973.62 1.28.427.307.973.46 1.64.46Zm13.744 1.36c-1.013 0-1.807-.193-2.38-.58-.56-.387-.967-.827-1.22-1.32h-.28v1.62h-1.54v-14h1.58v5.76h.28c.16-.307.387-.593.68-.86.293-.28.673-.507 1.14-.68.48-.187 1.06-.28 1.74-.28.853 0 1.627.207 2.32.62.706.4 1.266.98 1.68 1.74.413.747.62 1.64.62 2.68v.26c0 1.04-.213 1.94-.64 2.7-.413.76-.974 1.34-1.68 1.74-.694.4-1.46.6-2.3.6Zm-.42-1.4c1.013 0 1.833-.32 2.46-.96.64-.653.96-1.56.96-2.72v-.18c0-1.16-.32-2.06-.96-2.7-.627-.653-1.447-.98-2.46-.98-1 0-1.827.327-2.48.98-.64.64-.96 1.54-.96 2.7v.18c0 1.16.32 2.067.96 2.72.653.64 1.48.96 2.48.96Zm12.351 1.4c-.987 0-1.853-.207-2.6-.62a4.47 4.47 0 0 1-1.74-1.78c-.413-.76-.62-1.64-.62-2.64v-.24c0-1.013.207-1.9.62-2.66a4.372 4.372 0 0 1 1.72-1.76c.733-.427 1.573-.64 2.52-.64.92 0 1.733.2 2.44.6a4.11 4.11 0 0 1 1.66 1.68c.4.733.6 1.593.6 2.58v.72h-7.98c.04 1.053.38 1.88 1.02 2.48.64.587 1.44.88 2.4.88.84 0 1.487-.193 1.94-.58.453-.387.8-.847 1.04-1.38l1.36.66c-.2.413-.48.827-.84 1.24-.347.413-.807.76-1.38 1.04-.56.28-1.28.42-2.16.42Zm-3.36-6.06h6.36c-.053-.907-.367-1.613-.94-2.12-.56-.507-1.28-.76-2.16-.76-.893 0-1.627.253-2.2.76-.573.507-.927 1.213-1.06 2.12Zm10.716 5.78v-14h1.58v14h-1.58Z" fill="#000"/></svg>